<svg width="24" height="24" viewBox="0 0 24 24" fill="none" xmlns="http://www.w3.org/2000/svg">
<path d="M11.4688 20.4297C15.8828 20.4297 19.5391 16.7812 19.5391 12.3594C19.5391 7.94531 15.8828 4.28906 11.4609 4.28906C7.04688 4.28906 3.39844 7.94531 3.39844 12.3594C3.39844 16.7812 7.05469 20.4297 11.4688 20.4297ZM8.90625 15.6719C8.49219 15.6719 8.17188 15.3438 8.17188 14.9219C8.17188 14.7344 8.25 14.5547 8.39062 14.4141L10.4297 12.3672L8.39062 10.3281C8.25 10.1875 8.17188 10.0078 8.17188 9.8125C8.17188 9.39844 8.49219 9.08594 8.90625 9.08594C9.11719 9.08594 9.28125 9.15625 9.42188 9.29688L11.4688 11.3359L13.5312 9.28906C13.6797 9.14062 13.8438 9.07031 14.0547 9.07031C14.4609 9.07031 14.7812 9.39062 14.7812 9.80469C14.7812 10 14.7188 10.1719 14.5703 10.3203L12.5234 12.3672L14.5625 14.4062C14.7031 14.5469 14.7812 14.7266 14.7812 14.9219C14.7812 15.3438 14.4531 15.6719 14.0391 15.6719C13.8281 15.6719 13.6406 15.5938 13.5078 15.4531L11.4688 13.4141L9.44531 15.4531C9.29688 15.5938 9.11719 15.6719 8.90625 15.6719Z" fill="#C4C4C4"/>
</svg>
