<svg width="16" height="17" viewBox="0 0 16 17" fill="none" xmlns="http://www.w3.org/2000/svg">
<path d="M0.296875 6.9375C0.296875 10.4453 3.14844 13.2969 6.65625 13.2969C7.96094 13.2969 9.15625 12.8984 10.1562 12.2188L13.75 15.8125C13.9688 16.0391 14.2734 16.1406 14.5781 16.1406C15.2422 16.1406 15.7188 15.6406 15.7188 14.9922C15.7188 14.6797 15.6094 14.3906 15.3984 14.1719L11.8281 10.5938C12.5703 9.57031 13.0156 8.30469 13.0156 6.9375C13.0156 3.42969 10.1641 0.578125 6.65625 0.578125C3.14844 0.578125 0.296875 3.42969 0.296875 6.9375ZM1.95312 6.9375C1.95312 4.34375 4.05469 2.23438 6.65625 2.23438C9.25 2.23438 11.3594 4.34375 11.3594 6.9375C11.3594 9.53125 9.25 11.6406 6.65625 11.6406C4.05469 11.6406 1.95312 9.53125 1.95312 6.9375Z" fill="#C4C4C4"/>
</svg>
