<svg width="18" height="17" viewBox="0 0 18 17" fill="none" xmlns="http://www.w3.org/2000/svg">
<path d="M8.96875 16.4297C13.3828 16.4297 17.0391 12.7812 17.0391 8.35938C17.0391 3.94531 13.3828 0.289062 8.96094 0.289062C4.54688 0.289062 0.898438 3.94531 0.898438 8.35938C0.898438 12.7812 4.55469 16.4297 8.96875 16.4297ZM6.40625 11.6719C5.99219 11.6719 5.67188 11.3438 5.67188 10.9219C5.67188 10.7344 5.75 10.5547 5.89062 10.4141L7.92969 8.36719L5.89062 6.32812C5.75 6.1875 5.67188 6.00781 5.67188 5.8125C5.67188 5.39844 5.99219 5.08594 6.40625 5.08594C6.61719 5.08594 6.78125 5.15625 6.92188 5.29688L8.96875 7.33594L11.0312 5.28906C11.1797 5.14062 11.3438 5.07031 11.5547 5.07031C11.9609 5.07031 12.2812 5.39062 12.2812 5.80469C12.2812 6 12.2188 6.17188 12.0703 6.32031L10.0234 8.36719L12.0625 10.4062C12.2031 10.5469 12.2812 10.7266 12.2812 10.9219C12.2812 11.3438 11.9531 11.6719 11.5391 11.6719C11.3281 11.6719 11.1406 11.5938 11.0078 11.4531L8.96875 9.41406L6.94531 11.4531C6.79688 11.5938 6.61719 11.6719 6.40625 11.6719Z" fill="#C4C4C4"/>
</svg>
